# AST/ASF file generated using VICON BodyLanguage
# -----------------------------------------------
:version 1.10
:name VICON
:units
  mass 1.0
  length 0.45
  angle deg
:documentation
   .ast/.asf automatically generated from VICON data using
   VICON BodyBuilder and BodyLanguage model FoxedUp or BRILLIANT.MOD
:root
   order TX TY TZ RX RY RZ
   axis XYZ
   position 0 0 0  
   orientation 0 0 0 
:bonedata
  begin
     id 1 
     name lhipjoint
     direction 0.661853 -0.702389 0.261917 
     length 2.64193 
     axis 0 0 0  XYZ
  end
  begin
     id 2 
     name lfemur
     direction 0.34202 -0.939693 0  
     length 7.01722  
     axis 0 0 20  XYZ
    dof rx ry rz
    limits (-160.0 20.0)
           (-70.0 70.0)
           (-60.0 70.0)
  end
  begin
     id 3 
     name ltibia
     direction 0.34202 -0.939693 0   
     length 8.25008   
     axis 0 0 20   XYZ
    dof rx
    limits (-10.0 170.0)
  end
  begin
     id 4 
     name lfoot
     direction 0.0709916 -0.195048 0.978221   
     length 2.31941   
     axis -90 7.62852e-016 20   XYZ
    dof rx rz
    limits (-45.0 90.0)
           (-70.0 20.0)
  end
  begin
     id 5 
     name ltoes
     direction 1.53586e-011 -4.22017e-011 1   
     length 1.16486   
     axis -90 7.62852e-016 20   XYZ
    dof rx
    limits (-90.0 20.0)
  end
  begin
     id 6 
     name rhipjoint
     direction -0.638185 -0.721362 0.268992   
     length 2.57244  
     axis 0 0 0  XYZ 
  end
  begin
     id 7 
     name rfemur
     direction -0.34202 -0.939693 0   
     length 7.07017   
     axis 0 0 -20   XYZ
    dof rx ry rz
    limits (-160.0 20.0)
           (-70.0 70.0)
           (-70.0 60.0)
  end
  begin
     id 8 
     name rtibia
     direction -0.34202 -0.939693 0   
     length 8.20386   
     axis 0 0 -20   XYZ
    dof rx
    limits (-10.0 170.0)
 end
 begin
     id 9 
     name rfoot
     direction -0.0822429 -0.225961 0.970658   
     length 2.32215  
     axis -90 -7.62852e-016 -20   XYZ
    dof rx rz
    limits (-45.0 90.0)
           (-20.0 70.0)
  end
  begin
     id 10 
     name rtoes
     direction -1.53597e-011 -4.21689e-011 1   
     length 1.16333   
     axis -90 -7.62852e-016 -20   XYZ
    dof rx
    limits (-90.0 20.0)
  end
  begin
     id 11 
     name lowerback
     direction -0.0131557 0.998589 -0.0514484   
     length 2.14993   
     axis 0 0 0   XYZ
    dof rx ry rz
    limits (-20.0 45.0)
           (-30.0 30.0)
           (-30.0 30.0)
  end
  begin
     id 12 
     name upperback
     direction -0.000776481 0.999993 0.00352685   
     length 2.15301   
     axis 0 0 0   XYZ
    dof rx ry rz
    limits (-20.0 45.0)
           (-30.0 30.0)
           (-30.0 30.0)
  end
  begin
     id 13 
     name thorax
     direction 0.00438186 0.999609 0.0276143   
     length 2.15424   
     axis 0 0 0   XYZ
    dof rx ry rz
    limits (-20.0 45.0)
           (-30.0 30.0)
           (-30.0 30.0)
  end
  begin
     id 14 
     name lowerneck
     direction -0.0488006 0.998094 0.0377807   
     length 1.90481   
     axis 0 0 0   XYZ
    dof rx ry rz
    limits (-20.0 45.0)
           (-30.0 30.0)
           (-30.0 30.0)
  end
  begin
     id 15 
     name upperneck
     direction 0.0443769 0.990702 -0.12861   
     length 1.91305   
     axis 0 0 0   XYZ
    dof rx ry rz
    limits (-20.0 45.0)
           (-30.0 30.0)
           (-30.0 30.0)
  end
  begin
     id 16
     name head
     direction 0.0165599 0.998647 -0.0492982  
     length 1.92369  
     axis 0 0 0   XYZ
    dof rx ry rz
    limits (-20.0 45.0)
           (-30.0 30.0)
           (-30.0 30.0)
  end
  begin
     id 17 
     name lclavicle
     direction 0.911936 0.410197 -0.0105506  
     length 3.52622  
     axis 0 0 0   XYZ
    dof ry rz
    limits (-20.0 10.0)
           (0.0 20.0)
  end
  begin
     id 18 
     name lhumerus
     direction 1 -4.48974e-011 -2.48591e-028   
     length 5.47651   
     axis 180 -30 -90   XYZ
    dof rx ry rz
    limits (-60.0 90.0)
           (-90.0 90.0)
           (-90.0 90.0)
  end
  begin
     id 19
     name lradius
     direction 1 -4.48938e-011 -4.40099e-027   
     length 3.09058   
     axis 180 -30 -90   XYZ
    dof rx
    limits (-10.0 170.0)
  end
  begin
     id 20
     name lwrist
     direction 1 -4.49042e-011 -2.99852e-027   
     length 1.54529   
     axis 1.95339e-015 90 90   XYZ
    dof ry
    limits (-180.0 0.0)
 end
  begin
     id 21 
     name lhand
     direction 1 -4.48815e-011 -5.98193e-027   
     length 0.771611   
     axis 3.82337e-015 90 90   XYZ
    dof rx rz
    limits (-90.0 90.0)
           (-45.0 45.0)
  end
  begin
     id 22 
     name lfingers
     direction 1 -4.49034e-011 -1.1993e-026   
     length 0.622093   
     axis 7.64668e-015 90 90   XYZ
    dof rx
    limits (0.0 90.0)
  end
  begin
     id 23
     name lthumb
     direction 0.707107 -6.34867e-011 0.707107   
     length 0.893204   
     axis -90 45 -1.62303e-014   XYZ
    dof rx rz
    limits (-45.0 45.0)
           (-45.0 45.0)
  end
  begin
     id 24 
     name rclavicle
     direction -0.93442 0.355634 -0.0195692   
     length 3.62463  
     axis 0 0 0   XYZ 
    dof ry rz
    limits (-10.0 20.0)
           (-20.0 0.0)
  end
  begin
     id 25 
     name rhumerus
     direction -1 -4.48957e-011 -1.19147e-027  
     length 5.14182   
     axis 180 30 90   XYZ
    dof rx ry rz
    limits (-90.0 60.0)
           (-90.0 90.0)
           (-90.0 90.0)
  end
  begin
     id 26 
     name rradius
     direction -1 -4.48952e-011 -3.81062e-027   
     length 3.35565   
     axis 180 30 90   XYZ
    dof rx
    limits (-10.0 170.0)
  end
  begin
     id 27 
     name rwrist
     direction -1 -4.48973e-011 -2.99621e-027   
     length 1.67782   
     axis 1.95339e-015 -90 -90   XYZ
    dof ry
    limits (-180.0 0.0)
  end
  begin
     id 28
     name rhand
     direction -1 -4.48895e-011 -5.98727e-027   
     length 0.801042   
     axis 3.82337e-015 -90 -90   XYZ
    dof rx rz
    limits (-90.0 90.0)
           (-45.0 45.0)
  end
  begin
     id 29
     name rfingers
     direction -1 -4.49065e-011 -1.19972e-026   
     length 0.645821   
     axis 7.64668e-015 -90 -90   XYZ
    dof rx
    limits (0.0 90.0)
  end
  begin
     id 30
     name rthumb
     direction -0.707107 -6.34957e-011 0.707107   
     length 0.927273   
     axis -90 -45 1.62303e-014   XYZ
    dof rx rz
    limits (-45.0 45.0)
           (-45.0 45.0)
  end
:hierarchy
  begin
    root lhipjoint rhipjoint lowerback
    lhipjoint lfemur
    lfemur ltibia
    ltibia lfoot
    lfoot ltoes
    rhipjoint rfemur
    rfemur rtibia
    rtibia rfoot
    rfoot rtoes
    lowerback upperback
    upperback thorax
    thorax lowerneck lclavicle rclavicle
    lowerneck upperneck
    upperneck head
    lclavicle lhumerus
    lhumerus lradius
    lradius lwrist
    lwrist lhand lthumb
    lhand lfingers
    rclavicle rhumerus
    rhumerus rradius
    rradius rwrist
    rwrist rhand rthumb
    rhand rfingers
  end

#!OML:ASF E:\Style4\Style4.ASF
:FULLY-SPECIFIED
:DEGREES
612
root 0.606384 16.5581 0.463451 0.301431 -17.1117 5.944
lowerback 10.5692 1.71118 -4.79413
upperback 5.01442 1.76743 -0.718531
thorax -0.813404 0.804675 1.75219
lowerneck 4.41903 -4.75828 -6.44313
upperneck 6.76239 -6.67545 2.98078
head 1.7265 -3.44357 2.0224
rclavicle -2.56432e-014 6.75868e-015
rhumerus -16.9063 28.8758 -56.3905
rradius 135.676
rwrist -74.5034
rhand 59.9176 -7.76151
rfingers 7.12502
rthumb 74.5826 24.3596
lclavicle -2.56432e-014 6.75868e-015
lhumerus -6.81403 -24.8979 55.7631
lradius 138.807
lwrist 77.6719
lhand 37.0015 51.773
lfingers 7.12502
lthumb 59.8665 65.6927
rfemur -28.8316 6.62469 10.2221
rtibia 59.4384
rfoot -27.2699 -18.4937
rtoes -25.8973
lfemur -21.2827 12.1033 -27.9592
ltibia 54.9662
lfoot -34.1722 16.0926
ltoes -16.1493
613
root 0.598727 16.5618 0.46902 0.256405 -17.0313 5.91675
lowerback 10.5432 1.73116 -4.86813
upperback 5.18769 1.79475 -0.618797
thorax -0.625012 0.808985 1.89704
lowerneck 6.1275 -4.6423 -6.40283
upperneck 4.63597 -6.60305 3.07093
head 0.750262 -3.39402 2.11827
rclavicle -3.95581e-014 2.46493e-014
rhumerus -17.6343 27.4781 -57.7684
rradius 135.75
rwrist -74.5182
rhand 60.2676 -7.87402
rfingers 7.12502
rthumb 74.657 25.4908
lclavicle -3.95581e-014 2.46493e-014
lhumerus -7.67953 -23.2232 57.4738
lradius 139.012
lwrist 77.527
lhand 37.1562 52.1795
lfingers 7.12502
lthumb 59.9989 65.9609
rfemur -28.6727 6.59686 10.2893
rtibia 59.3828
rfoot -27.3434 -18.4862
rtoes -25.7412
lfemur -21.1799 12.1007 -27.8851
ltibia 54.9167
lfoot -34.1502 15.9341
ltoes -15.6232
614
root 0.589477 16.5628 0.473325 0.213291 -16.9301 5.94454
lowerback 10.5313 1.76789 -5.01283
upperback 5.33663 1.83604 -0.523611
thorax -0.472219 0.819912 2.07459
lowerneck 7.7901 -4.54475 -6.32593
upperneck 2.58125 -6.54992 3.07297
head -0.187089 -3.35222 2.19544
rclavicle 1.44119e-014 -1.47101e-014
rhumerus -18.4655 26.0076 -59.1668
rradius 135.857
rwrist -74.4435
rhand 60.9913 -8.36715
rfingers 7.12502
rthumb 74.7868 27.604
lclavicle 1.44119e-014 -1.47101e-014
lhumerus -8.56308 -21.5218 59.1067
lradius 139.236
lwrist 77.5452
lhand 37.1958 52.7384
lfingers 7.12502
lthumb 60.0328 66.4842
rfemur -28.5508 6.52528 10.2981
rtibia 59.3406
rfoot -27.4087 -18.4385
rtoes -25.2916
lfemur -21.1168 12.0874 -27.8679
ltibia 54.908
lfoot -34.0849 15.878
ltoes -15.6583
615
root 0.579714 16.5656 0.47685 0.225189 -16.829 5.96849
lowerback 10.4938 1.78788 -5.21425
upperback 5.42797 1.8511 -0.383002
thorax -0.366479 0.817953 2.33392
lowerneck 9.48081 -4.39922 -6.33906
upperneck 0.590288 -6.44771 3.04978
head -1.12176 -3.28307 2.29825
rclavicle 4.57205e-015 -1.31198e-014
rhumerus -19.3828 24.6422 -60.5225
rradius 135.975
rwrist -74.202
rhand 62.0448 -8.64986
rfingers 7.12502
rthumb 74.917 31.1837
lclavicle 4.57205e-015 -1.31198e-014
lhumerus -9.67803 -19.7738 60.8419
lradius 139.597
lwrist 77.5082
lhand 37.3035 53.2024
lfingers 7.12502
lthumb 60.1248 66.851
rfemur -28.4922 6.40125 10.2964
rtibia 59.2898
rfoot -27.6807 -18.0762
rtoes -24.1916
lfemur -21.1266 12.0833 -27.8601
ltibia 54.9328
lfoot -34.0423 15.917
ltoes -16.004
616
root 0.571725 16.5682 0.479636 0.279866 -16.7276 5.87868
lowerback 10.4256 1.78455 -5.2934
upperback 5.54722 1.8498 -0.196312
thorax -0.212133 0.807407 2.5757
lowerneck 11.0266 -4.2431 -6.21986
upperneck -1.24885 -6.32331 2.79928
head -2.01918 -3.19215 2.30392
rclavicle 4.59193e-014 -2.14687e-014
rhumerus -20.1031 23.3694 -61.6462
rradius 136.034
rwrist -74.0708
rhand 62.6966 -8.35623
rfingers 7.12502
rthumb 74.962 33.8943
lclavicle 4.59193e-014 -2.14687e-014
lhumerus -10.8433 -18.0102 62.6331
lradius 140.021
lwrist 77.3302
lhand 37.4658 53.5691
lfingers 7.12502
lthumb 60.2633 67.0701
rfemur -28.4361 6.2888 10.4156
rtibia 59.2387
rfoot -28.08 -17.5148
rtoes -22.6654
lfemur -21.1789 12.0544 -27.752
ltibia 54.9791
lfoot -33.9446 16.1145
ltoes -16.6519
617
root 0.563453 16.5705 0.481446 0.336787 -16.6422 5.71318
lowerback 10.3782 1.84188 -5.18131
upperback 5.73558 1.94459 -0.0676743
thorax 0.00126216 0.846227 2.64011
lowerneck 12.1123 -4.17878 -5.84275
upperneck -2.68275 -6.27029 2.43832
head -2.72766 -3.13396 2.2027
rclavicle -2.44505e-014 1.19271e-014
rhumerus -20.7747 21.8997 -62.682
rradius 136.087
rwrist -74.2605
rhand 63.0062 -8.22808
rfingers 7.12502
rthumb 74.9738 35.1744
lclavicle -2.44505e-014 1.19271e-014
lhumerus -11.5739 -16.4313 64.1891
lradius 140.279
lwrist 76.9306
lhand 37.8813 53.5771
lfingers 7.12502
lthumb 60.6168 66.6931
rfemur -28.3778 6.23802 10.6287
rtibia 59.1966
rfoot -28.0692 -17.5758
rtoes -22.9567
lfemur -21.2139 12.0402 -27.5555
ltibia 55.0237
lfoot -33.867 16.2062
ltoes -16.9282
618
root 0.555078 16.5687 0.482195 0.336917 -16.5558 5.68536
lowerback 10.3425 1.95251 -5.11411
upperback 5.97183 2.10457 -0.0146707
thorax 0.254481 0.915843 2.64508
lowerneck 12.6656 -4.16868 -5.5503
upperneck -3.58252 -6.2656 2.167
head -3.15932 -3.10834 2.11054
rclavicle 1.68967e-014 -1.23246e-014
rhumerus -21.4049 20.3034 -63.5954
rradius 136.232
rwrist -74.4623
rhand 63.0949 -8.24616
rfingers 7.12502
rthumb 74.976 35.4868
lclavicle 1.68967e-014 -1.23246e-014
lhumerus -11.9105 -14.8698 65.475
lradius 140.401
lwrist 76.6944
lhand 38.4517 53.6178
lfingers 7.12502
lthumb 61.0997 66.1894
rfemur -28.3445 6.14141 10.6944
rtibia 59.2002
rfoot -27.7014 -18.1795
rtoes -24.8068
lfemur -21.2073 12.0173 -27.4945
ltibia 55.0424
lfoot -33.8932 16.1391
ltoes -16.8065
619
root 0.548775 16.5661 0.483333 0.270556 -16.469 5.76748
lowerback 10.3083 2.00495 -5.18215
upperback 6.2148 2.17581 0.0385945
thorax 0.518048 0.937369 2.73619
lowerneck 12.938 -4.07086 -5.45162
upperneck -4.09664 -6.15773 1.9103
head -3.40673 -3.03496 2.02768
rclavicle 1.59028e-015 -2.14687e-014
rhumerus -21.8973 19.0595 -64.4027
rradius 136.393
rwrist -74.4046
rhand 63.0448 -7.76792
rfingers 7.12502
rthumb 74.9748 35.7784
lclavicle 1.59028e-015 -2.14687e-014
lhumerus -12.3886 -13.1428 66.6322
lradius 140.629
lwrist 76.9282
lhand 38.569 53.8639
lfingers 7.12502
lthumb 61.1987 66.321
rfemur -28.2843 6.01789 10.6221
rtibia 59.2513
rfoot -27.6552 -18.327
rtoes -25.4261
lfemur -21.1352 11.976 -27.5532
ltibia 55.0331
lfoot -33.9814 16.0122
ltoes -16.3639
620
root 0.543308 16.5628 0.482976 0.202386 -16.4052 5.84531
lowerback 10.3266 2.05186 -5.26186
upperback 6.40461 2.23422 0.0915183
thorax 0.698153 0.954928 2.83264
lowerneck 12.9699 -3.93625 -5.40625
upperneck -4.19821 -5.99107 1.6888
head -3.46351 -2.94061 1.93955
rclavicle -4.37326e-014 -3.97569e-015
rhumerus -22.3903 17.9523 -65.1451
rradius 136.498
rwrist -74.4013
rhand 63.0714 -7.38409
rfingers 7.12502
rthumb 74.9754 36.2615
lclavicle -4.37326e-014 -3.97569e-015
lhumerus -13.0131 -11.5781 67.7443
lradius 140.921
lwrist 77.355
lhand 38.1723 53.9903
lfingers 7.12502
lthumb 60.8636 66.8309
rfemur -28.2413 5.92538 10.5632
rtibia 59.3276
rfoot -27.7216 -18.3571
rtoes -25.5142
lfemur -21.0877 11.9613 -27.6174
ltibia 55.0151
lfoot -34.0677 16.0063
ltoes -16.2319
621
root 0.537098 16.5572 0.479746 0.155586 -16.3222 5.92614
lowerback 10.4243 2.08885 -5.36377
upperback 6.53434 2.27123 0.151184
thorax 0.773099 0.964687 2.94745
lowerneck 12.8183 -3.7928 -5.52586
upperneck -4.06149 -5.81719 1.59069
head -3.39308 -2.85052 1.90769
rclavicle 9.14409e-015 -1.27222e-014
rhumerus -22.7913 16.9803 -65.7497
rradius 136.604
rwrist -74.476
rhand 63.134 -7.31083
rfingers 7.12502
rthumb 74.9768 36.5678
lclavicle 9.14409e-015 -1.27222e-014
lhumerus -13.7007 -10.0706 68.822
lradius 141.077
lwrist 77.4094
lhand 38.8149 53.952
lfingers 7.12502
lthumb 61.4057 66.1668
rfemur -28.2516 5.82916 10.5073
rtibia 59.4184
rfoot -27.766 -18.3668
rtoes -25.4215
lfemur -21.0837 11.93 -27.689
ltibia 55.0056
lfoot -34.1049 16.0804
ltoes -16.2228
622
root 0.531479 16.5521 0.477684 0.126998 -16.2376 6.00629
lowerback 10.4547 2.11609 -5.44666
upperback 6.66078 2.30128 0.209134
thorax 0.88234 0.970583 3.05252
lowerneck 12.5595 -3.63901 -5.66162
upperneck -3.83806 -5.6247 1.48313
head -3.27246 -2.75265 1.86859
rclavicle -2.76311e-014 9.54166e-015
rhumerus -23.099 16.1558 -66.2517
rradius 136.72
rwrist -74.5679
rhand 63.3597 -7.50144
rfingers 7.12502
rthumb 74.9796 37.2182
lclavicle -2.76311e-014 9.54166e-015
lhumerus -14.3814 -8.6291 69.7761
lradius 141.227
lwrist 77.4038
lhand 39.4716 53.9626
lfingers 7.12502
lthumb 61.9558 65.5114
rfemur -28.2628 5.73224 10.4386
rtibia 59.503
rfoot -27.8618 -18.3077
rtoes -25.2461
lfemur -21.0769 11.9112 -27.7682
ltibia 55.0112
lfoot -34.1164 16.144
ltoes -16.3969
623
root 0.525514 16.5487 0.474634 0.14151 -16.1362 5.97567
lowerback 10.4063 2.17089 -5.35057
upperback 6.78344 2.38769 0.234321
thorax 1.03143 1.00969 3.01981
lowerneck 12.4195 -3.55413 -5.54802
upperneck -3.70049 -5.49604 1.31518
head -3.20984 -2.6861 1.77607
rclavicle 3.97569e-016 3.57812e-014
rhumerus -23.5513 15.3096 -66.7726
rradius 136.797
rwrist -74.5192
rhand 63.606 -7.31675
rfingers 7.12502
rthumb 74.9788 38.3209
lclavicle 3.97569e-016 3.57812e-014
lhumerus -14.8572 -7.55325 70.5298
lradius 141.364
lwrist 77.5333
lhand 39.386 53.9154
lfingers 7.12502
lthumb 61.8843 65.5526
rfemur -28.2674 5.63668 10.4943
rtibia 59.5719
rfoot -27.9324 -18.3123
rtoes -25.2853
lfemur -21.1111 11.8947 -27.7281
ltibia 55.0499
lfoot -34.1401 16.1802
ltoes -16.6895
